<svg height="512pt" viewBox="-52 0 512 512" width="512pt" xmlns="http://www.w3.org/2000/svg"><path d="m256.398438 512c-107.726563.167969-204.03125-67.125-240.921876-168.335938-36.886718-101.214843-6.46875-214.695312 76.101563-283.882812 82.570313-69.191406 199.621094-79.285156 292.820313-25.253906l23.902343 13.839844-23.902343 13.839843c-69.300782 39.921875-112.011719 113.8125-112.011719 193.792969 0 79.976562 42.710937 153.867188 112.011719 193.792969l23.902343 13.839843-23.902343 13.839844c-38.890626 22.558594-83.039063 34.46875-128 34.527344zm0 0" fill="#f7d260"/><g fill="#fff"><path d="m208.398438 96v-32h32v32zm0 0"/><path d="m144.398438 160v-32h32v32zm0 0"/></g></svg>