<svg height="512pt" viewBox="0 -64 512.12974 512" width="512pt" xmlns="http://www.w3.org/2000/svg"><path d="m428.03125 236.074219h-213.277344v-156.800781l.992188-2.703126c16.542968-44.445312 58.179687-74.585937 105.566406-76.417968 47.382812-1.832032 91.226562 25 111.152344 68.03125 45.503906 2.351562 80.839844 40.554687 79.636718 86.105468-1.203124 45.550782-38.503906 81.835938-84.070312 81.785157zm0 0" fill="#eae2cc"/><path d="m432.03125 384.074219h-336c-46.84375.015625-86.859375-33.78125-94.683594-79.96875-7.824218-46.1875 18.832032-91.277344 63.070313-106.6875 4.636719-61.84375 48.351562-113.773438 108.496093-128.886719 60.148438-15.117188 123.21875 9.972656 156.542969 62.277344 7.390625-1.8125 14.96875-2.730469 22.574219-2.734375 53 .050781 95.949219 43 96 96v1.597656c40.28125 8.179687 67.808594 45.546875 63.675781 86.441406-4.128906 40.890625-38.574219 72-79.675781 71.960938zm0 0" fill="#f2ecda"/><path d="m208.03125 160.074219h32v32h-32zm0 0" fill="#fff"/><path d="m144.03125 160.074219h32v32h-32zm0 0" fill="#fff"/><path d="m432.03125 304.074219h-336c-37.417969-.042969-71.402344-21.828125-87.070312-55.808594-13.816407 29.652344-11.484376 64.316406 6.171874 91.859375 17.65625 27.539062 48.183594 44.125 80.898438 43.949219h336c28.660156.035156 55.140625-15.277344 69.40625-40.132813 14.265625-24.855468 14.125-55.449218-.363281-80.171875-14.128907 24.835938-40.46875 40.210938-69.042969 40.304688zm0 0" fill="#eae2cc"/></svg>