<svg height="512pt" viewBox="0 -60 512.11336 512" width="512pt" xmlns="http://www.w3.org/2000/svg"><path d="m432.03125 328.296875h-336c-46.84375.015625-86.859375-33.78125-94.683594-79.96875-7.824218-46.1875 18.832032-91.277344 63.070313-106.6875 4.636719-61.84375 48.351562-113.769531 108.496093-128.886719 60.148438-15.117187 123.21875 9.976563 156.542969 62.277344 7.390625-1.8125 14.96875-2.730469 22.574219-2.734375 53 .050781 95.949219 43.003906 96 96v1.601563c40.28125 8.175781 67.808594 45.546874 63.675781 86.4375-4.128906 40.894531-38.574219 72.003906-79.675781 71.960937zm0 0" fill="#f2ecda"/><path d="m432.03125 248.296875h-336c-37.417969-.042969-71.402344-21.824219-87.070312-55.808594-13.816407 29.65625-11.484376 64.320313 6.171874 91.859375 17.65625 27.542969 48.183594 44.125 80.898438 43.949219h336c28.660156.035156 55.140625-15.277344 69.40625-40.132813 14.265625-24.855468 14.125-55.445312-.363281-80.171874-14.128907 24.835937-40.46875 40.210937-69.042969 40.304687zm0 0" fill="#eae2cc"/><path d="m368.03125 120.296875h32v32h-32zm0 0" fill="#fff"/><path d="m304.03125 120.296875h32v32h-32zm0 0" fill="#fff"/><path d="m114.320312 176.535156-62.542968-104.238281h64l-33.457032-55.761719 27.425782-16.4765622 62.542968 104.2382812h-64l33.457032 55.761719zm0 0" fill="#f7d260"/><g fill="#1998f1"><path d="m176.03125 264.296875h32v128h-32zm0 0"/><path d="m240.03125 264.296875h32v64h-32zm0 0"/><path d="m240.03125 360.296875h32v32h-32zm0 0"/><path d="m304.03125 264.296875h32v128h-32zm0 0"/></g></svg>